<?xml version="1.0" encoding="utf-8"?>
<!-- Generator: Adobe Illustrator 24.2.1, SVG Export Plug-In . SVG Version: 6.00 Build 0)  -->
<svg version="1.1" id="Слой_1" xmlns="http://www.w3.org/2000/svg" xmlns:xlink="http://www.w3.org/1999/xlink" x="0px" y="0px"
	 viewBox="0 0 628.9 56.4" style="enable-background:new 0 0 628.9 56.4;" xml:space="preserve">
<style type="text/css">
	.st0{fill:#FFFFFF;}
	.st1{fill:url(#SVGID_1_);}
	.st2{fill:url(#SVGID_2_);}
	.st3{fill:url(#SVGID_3_);}
	.st4{fill:url(#SVGID_4_);}
</style>
<g id="Слой_2_1_">
	<g id="Layer_1">
		<path class="st0" d="M30.5,7c-1.2-0.2-2.5-0.3-3.7-0.3H15.3v7.4h11.2c1,0,2,0.1,2.9,0.3c3.9,1,5.2,4.6,5.2,7.6s-1.3,6.6-5.2,7.6
			c-1,0.2-1.9,0.3-2.9,0.3H15.2V14.3H7.3v15.7H0v7.3h7.3v16.4h7.8V37.3h11.6c1.2,0,2.5-0.1,3.7-0.3c8.1-1.3,12-7.3,12-15.1
			S38.7,8.2,30.5,7z"/>
		<path class="st0" d="M73.4,35.9c5.3-2.3,8-7.6,8-13.9c0-7.8-3.8-13.8-12-15c-1.2-0.2-2.5-0.3-3.7-0.3H46.2v47H54V37.3h11.3l8,16.4
			h8.9L73.4,35.9z M68.3,29.6c-1,0.2-2,0.3-3,0.3H54V14.1h11.3c1,0,2,0.1,3,0.3c3.9,1,5.2,4.6,5.2,7.6S72.2,28.6,68.3,29.6z"/>
		<path class="st0" d="M108.4,4.7c-14.1,0-22.5,9.9-22.5,24.5s8.4,24.5,22.5,24.5s22.5-9.9,22.5-24.5S122.5,4.7,108.4,4.7z
			 M108.4,46.3c-9.5-0.1-14.2-6.8-14.2-17s4.7-17.2,14.2-17s14.2,6.7,14.2,17S117.9,46.4,108.4,46.3z"/>
		<path class="st0" d="M165.3,29c2.9-1.8,4.8-5,4.8-9.3c0-6.3-4.4-12.9-13.8-12.9h-18.7v47h20.6c9.3,0,14.1-5.6,14.1-14
			C172.4,35.1,169.6,30.8,165.3,29z M145.5,14.1H156c3.7,0,6,2.4,6,5.7c0,3.8-2.6,5.7-6,5.7h-10.5V14.1z M157.1,46.3h-11.6V32.8
			h11.8c4.4,0,6.9,2.9,6.9,6.7C164.2,43.6,161.2,46.3,157.1,46.3z"/>
		<rect x="179.1" y="6.7" class="st0" width="7.8" height="47"/>
		<polygon class="st0" points="194.4,14.1 209.7,14.1 209.7,53.7 217.5,53.7 217.5,14.1 232.8,14.1 232.8,6.7 194.4,6.7 		"/>
		<path class="st0" d="M256.5,6.7h-11.6l-14.8,47h8.1l3.2-10.2h18.5l3.3,10.2h8.1L256.5,6.7z M243.8,36.1l6.9-21.9l7,21.9H243.8z"/>
		<path class="st0" d="M299.1,26.1l-8.4-2.3c-3.1-0.9-6.8-2.2-6.8-5.7s4.1-6.1,8.8-5.9s9.2,2.9,10.2,7.8l8.5-1.4
			c-2.2-8.7-9-13.7-18.6-13.8s-17.2,4.6-17.2,13.7c0,8.3,6.3,10.8,10.5,12.1l12.1,3.5c3.5,1.1,5.2,2.8,5.2,5.5
			c0,4.3-4.7,6.7-9.7,6.7c-5.7,0-10.4-3.1-11.8-8.8l-8.2,1.3c1.5,9.2,9.2,14.9,19.5,14.9c9.6,0,18.4-4.9,18.4-14.7
			C311.7,29.7,303.7,27.4,299.1,26.1z"/>
		<polygon class="st0" points="428,25.3 428,33.1 411.5,33.1 411.5,52.7 403.7,52.7 403.7,13.6 411.5,13.6 411.5,25.3 		"/>
		<rect x="411.6" y="5.7" class="st0" width="25.6" height="7.8"/>
		<rect x="442.5" y="5.7" class="st0" width="7.8" height="47"/>
		<path class="st0" d="M476.8,6c-1.9-0.2-3.8-0.3-5.7-0.3h-15v47h15c1.9,0,3.8-0.1,5.7-0.3c11.2-1.5,17.3-11.3,17.3-23.3
			S488,7.3,476.8,6z M476.3,45c-1.7,0.3-3.5,0.4-5.2,0.3h-6.9V13.1h6.9c1.7,0,3.5,0.1,5.2,0.3c6.5,1.2,9.5,8.1,9.5,15.7
			C485.8,36.6,482.9,43.6,476.3,45z"/>
		<polygon class="st0" points="501.8,52.7 532.2,52.7 532.2,45.3 509.6,45.3 509.6,32 528.3,32 528.3,24.7 509.6,24.7 509.6,13.1 
			532.2,13.1 532.2,5.7 501.8,5.7 		"/>
		<polygon class="st0" points="548.5,5.7 540.7,5.7 540.7,52.7 569.2,52.7 569.2,45.3 548.5,45.3 		"/>
		<rect x="575.4" y="5.7" class="st0" width="7.8" height="47"/>
		<path class="st0" d="M616.3,26.1l-8.4-2.3c-3.1-0.9-6.8-2.2-6.8-5.7s4.1-6.1,8.8-5.9s9.1,2.9,10.2,7.8l8.5-1.4
			c-2.2-8.7-9-13.7-18.6-13.8s-17.2,4.6-17.2,13.7c0,8.3,6.3,10.8,10.5,12.1l12.1,3.5c3.5,1.1,5.2,2.8,5.2,5.5
			c0,4.3-4.7,6.7-9.7,6.7c-5.7,0-10.4-3.1-11.8-8.8l-8.2,1.3c1.5,9.2,9.2,14.9,19.5,14.9c9.6,0,18.4-4.9,18.4-14.7
			C628.9,29.7,620.9,27.4,616.3,26.1z"/>
		
			<linearGradient id="SVGID_1_" gradientUnits="userSpaceOnUse" x1="334.1555" y1="1.4978" x2="356.4088" y2="23.751" gradientTransform="matrix(1 0 0 -1 0 55.8898)">
			<stop  offset="0" style="stop-color:#0098BF"/>
			<stop  offset="0.2" style="stop-color:#009EBD"/>
			<stop  offset="0.46" style="stop-color:#00AEB8"/>
			<stop  offset="0.75" style="stop-color:#01C8B0"/>
			<stop  offset="1" style="stop-color:#01E4A7"/>
		</linearGradient>
		<path class="st1" d="M342.9,51.2h20.9v5.1h-20.9c-4.6,0-8.9-1.9-12-5.3c-6.5-7-6.5-17.9,0-24.9c3.1-3.3,7.4-5.2,12-5.2h2.4v5.2
			h-2.3c-3.1,0-6.1,1.3-8.3,3.6c-4.6,5.1-4.6,12.8,0,17.9C336.7,49.9,339.7,51.2,342.9,51.2z"/>
		
			<linearGradient id="SVGID_2_" gradientUnits="userSpaceOnUse" x1="355.14" y1="13.9198" x2="384.94" y2="43.7198" gradientTransform="matrix(1 0 0 -1 0 55.8898)">
			<stop  offset="0" style="stop-color:#0098BF"/>
			<stop  offset="0.52" style="stop-color:#00BEB3"/>
			<stop  offset="1" style="stop-color:#01E4A7"/>
		</linearGradient>
		<path class="st2" d="M387.3,18c0,2.1-0.8,4.2-2.3,5.7c-1.5,1.5-3.5,2.4-5.6,2.4h-1.4V21h1.4c0.7,0,1.4-0.3,1.9-0.8
			c0.6-0.6,0.9-1.3,0.9-2.1c0-0.8-0.3-1.6-0.9-2.1c-0.5-0.5-1.2-0.8-2-0.8h-10.2v15.5h3.9v5.2h-3.9v15.2h-5.1l0.1-41.1h15.3
			c2.1,0,4.1,0.9,5.5,2.4C386.5,13.8,387.3,15.9,387.3,18z"/>
		
			<linearGradient id="SVGID_3_" gradientUnits="userSpaceOnUse" x1="338.6806" y1="10.8754" x2="369.1325" y2="41.3273" gradientTransform="matrix(1 0 0 -1 0 55.8898)">
			<stop  offset="0" style="stop-color:#0098BF"/>
			<stop  offset="0.34" style="stop-color:#00AFB8"/>
			<stop  offset="1" style="stop-color:#01E4A7"/>
		</linearGradient>
		<path class="st3" d="M354.8,5.4h5.2v41.7h-16c-2.1,0-4.2-0.9-5.6-2.4c-1.5-1.5-2.3-3.6-2.3-5.7c-0.1-4.4,3.5-8,7.9-8.1h1.2V36H344
			c-1.6,0-2.9,1.4-2.8,3c0,0,0,0,0,0c0,0.8,0.3,1.6,0.8,2.2c0.5,0.5,1.2,0.8,2,0.8h10.8V26.1h-4V21h4L354.8,5.4z"/>
		
			<linearGradient id="SVGID_4_" gradientUnits="userSpaceOnUse" x1="367.0039" y1="31.4558" x2="389.2739" y2="53.7258" gradientTransform="matrix(1 0 0 -1 0 55.8898)">
			<stop  offset="0" style="stop-color:#0098BF"/>
			<stop  offset="8.000000e-02" style="stop-color:#00A4BB"/>
			<stop  offset="0.31" style="stop-color:#01C0B2"/>
			<stop  offset="0.54" style="stop-color:#01D4AC"/>
			<stop  offset="0.77" style="stop-color:#01E0A8"/>
			<stop  offset="1" style="stop-color:#01E4A7"/>
		</linearGradient>
		<path class="st4" d="M397.2,17.7c0,4.6-1.7,9.1-4.9,12.5c-3.1,3.3-7.4,5.2-12,5.2H378v-5.1h2.4c3.1,0,6.1-1.3,8.3-3.6
			c2.3-2.4,3.5-5.6,3.5-8.9c0-3.3-1.2-6.5-3.5-8.9c-2.1-2.3-5.1-3.6-8.2-3.7h-20.1V0h20.1c4.6,0,8.9,1.9,12,5.3
			C395.6,8.7,397.3,13.1,397.2,17.7z"/>
	</g>
</g>
</svg>
